<?xml version="1.0" encoding="UTF-8" standalone="no"?>
<svg width="44px" height="27px" viewBox="0 0 44 27" version="1.1" xmlns="http://www.w3.org/2000/svg" xmlns:xlink="http://www.w3.org/1999/xlink">
    <!-- Generator: Sketch 42 (36781) - http://www.bohemiancoding.com/sketch -->
    <title>amex</title>
    <desc>Created with Sketch.</desc>
    <defs></defs>
    <g id="Page-1" stroke="none" stroke-width="1" fill="none" fill-rule="evenodd">
        <g id="Mobile-Portrait-Copy-30" transform="translate(-121.000000, -162.000000)">
            <g id="amex" transform="translate(121.000000, 162.000000)">
                <rect id="Rectangle-1" fill="#2557D6" x="0" y="0" width="43.3821138" height="27" rx="2.3226831"></rect>
                <path d="M0.000155481496,12.6793995 L2.08389449,12.6793995 L2.55373608,11.5609907 L3.60560872,11.5609907 L4.07421919,12.6793995 L8.17413713,12.6793995 L8.17413713,11.8243427 L8.54009997,12.6830442 L10.6684681,12.6830442 L11.034431,11.8115851 L11.034431,12.6793995 L21.223514,12.6793995 L21.218742,10.8435331 L21.4158813,10.8435331 C21.5539255,10.8482452 21.5942454,10.8608469 21.5942454,11.0857735 L21.5942454,12.6793995 L26.8640744,12.6793995 L26.8640744,12.2520227 C27.2891323,12.4767975 27.9502653,12.6793995 28.820234,12.6793995 L31.0372463,12.6793995 L31.5117049,11.5609907 L32.5635771,11.5609907 L33.0275714,12.6793995 L37.2998512,12.6793995 L37.2998512,11.6170332 L37.9468266,12.6793995 L41.3703759,12.6793995 L41.3703759,5.65669433 L37.9822224,5.65669433 L37.9822224,6.48608446 L37.5077638,5.65669433 L34.0311206,5.65669433 L34.0311206,6.48608446 L33.5954439,5.65669433 L28.8993358,5.65669433 C28.1132398,5.65669433 27.4222512,5.76498153 26.8640744,6.06675726 L26.8640744,5.65669433 L23.6233518,5.65669433 L23.6233518,6.06675726 C23.2681622,5.75571726 22.7841624,5.65669433 22.2459911,5.65669433 L10.4063835,5.65669433 L9.61197656,7.47053885 L8.7961788,5.65669433 L5.06699445,5.65669433 L5.06699445,6.48608446 L4.65732582,5.65669433 L1.47693065,5.65669433 L-1.73527951e-07,8.99566911 L-1.73527951e-07,12.6793995 L0.0001502178,12.6793995 L0.000155481496,12.6793995 L0.000155481496,12.6793995 Z M13.1534118,11.6664283 L11.9031682,11.6664283 L11.8985523,7.72283924 L10.1301447,11.6664283 L9.05934222,11.6664283 L7.28631754,7.71934586 L7.28631754,11.6664283 L4.80583743,11.6664283 L4.33722696,10.543312 L1.79795863,10.543312 L1.3245774,11.6664283 L2.71861245e-06,11.6664283 L2.18392739,6.63116102 L3.99588775,6.63116102 L6.07008494,11.3985206 L6.07008494,6.63116102 L8.06056391,6.63116102 L9.65660923,10.0469843 L11.1227673,6.63116102 L13.1532585,6.63116102 L13.1532585,11.6664283 L13.153432,11.6664283 L13.1534118,11.6664283 L13.1534118,11.6664283 Z M3.92042508,9.49831739 L3.08569832,7.49098433 L2.25574232,9.49831739 L3.92042508,9.49831739 L3.92042508,9.49831739 L3.92042508,9.49831739 Z M18.1290655,11.6664283 L14.0550014,11.6664283 L14.0550014,6.63116102 L18.1290655,6.63116102 L18.1290655,7.67970631 L15.2746202,7.67970631 L15.2746202,8.58731274 L18.0605819,8.58731274 L18.0605819,9.61945567 L15.2746202,9.61945567 L15.2746202,10.6250211 L18.1290655,10.6250211 L18.1290655,11.6664283 L18.1290655,11.6664283 L18.1290655,11.6664283 Z M23.8703013,7.98725408 C23.8703013,8.79006611 23.3273591,9.20483656 23.0109508,9.3293742 C23.2778046,9.42961185 23.5057232,9.60669803 23.6142196,9.75340949 C23.7864275,10.003852 23.8161298,10.2275633 23.8161298,10.6772658 L23.8161298,11.6664283 L22.5860461,11.6664283 L22.5814303,11.0314387 C22.5814303,10.7284471 22.6108242,10.2927176 22.3889074,10.0504771 C22.2106971,9.87339038 21.9390719,9.83496611 21.5000102,9.83496611 L20.1908242,9.83496611 L20.1908242,11.6664283 L18.9713599,11.6664283 L18.9713599,6.63116102 L21.7764051,6.63116102 C22.39968,6.63116102 22.8589028,6.64741146 23.2531826,6.87233866 C23.6389971,7.09726586 23.8703019,7.42561968 23.8703019,7.98725408 L23.8703013,7.98725408 L23.8703013,7.98725408 Z M22.328645,8.73494828 C22.1610529,8.83533783 21.9628366,8.83867873 21.7253768,8.83867873 L20.2438284,8.83867873 L20.2438284,7.72027051 L21.7455367,7.72027051 C21.9580657,7.72027051 22.1798281,7.72968726 22.3238741,7.81109197 C22.4820783,7.88444771 22.5799558,8.04057535 22.5799558,8.25623771 C22.5799558,8.4763049 22.4868492,8.65339166 22.328645,8.73494828 L22.328645,8.73494828 L22.328645,8.73494828 Z M25.8261868,11.6664283 L24.5817917,11.6664283 L24.5817917,6.63116102 L25.8261868,6.63116102 L25.8261868,11.6664283 L25.8261868,11.6664283 L25.8261868,11.6664283 Z M40.2718222,11.6664283 L38.5435806,11.6664283 L36.231923,7.88716834 L36.231923,11.6664283 L33.7482114,11.6664283 L33.2735989,10.543312 L30.7401789,10.543312 L30.2797246,11.6664283 L28.8526555,11.6664283 C28.2598516,11.6664283 27.5093052,11.5370306 27.0842473,11.109502 C26.6556499,10.6819739 26.432656,10.1028743 26.432656,9.18721892 C26.432656,8.44044936 26.5659288,7.7577707 27.0900957,7.21831013 C27.4843744,6.81644866 28.1018019,6.63116102 28.9422222,6.63116102 L30.1229052,6.63116102 L30.1229052,7.71008159 L28.9669998,7.71008159 C28.5219351,7.71008159 28.2706249,7.77538834 28.0285475,8.00836452 C27.8206355,8.22038217 27.6779749,8.62118083 27.6779749,9.14894656 C27.6779749,9.68840656 27.7866245,10.077359 28.0133122,10.3314457 C28.2010637,10.5307062 28.5422495,10.5911524 28.8632743,10.5911524 L29.4109868,10.5911524 L31.1298405,6.63131293 L32.9571906,6.63131293 L35.0220005,11.3939645 L35.0220005,6.63131293 L36.8788978,6.63131293 L39.0226568,10.138109 L39.0226568,6.63131293 L40.2718222,6.63131293 L40.2718222,11.6664283 L40.2718222,11.6664283 L40.2718222,11.6664283 Z M32.8587994,9.49831739 L32.0148391,7.49098433 L31.1754953,9.49831739 L32.8587994,9.49831739 L32.8587994,9.49831739 L32.8587994,9.49831739 Z" id="Path" fill="#FFFFFF"></path>
                <path d="M43.3795942,19.7063977 C43.083347,20.1339264 42.5060866,20.3506521 41.724607,20.3506521 L39.3693973,20.3506521 L39.3693973,19.2706682 L41.7150659,19.2706682 C41.9477554,19.2706682 42.110576,19.2404448 42.2086074,19.1459786 C42.2935577,19.0680667 42.3528067,18.9549195 42.3528067,18.8174729 C42.3528067,18.670762 42.2935577,18.5542733 42.2038365,18.484411 C42.1153468,18.4075618 41.9865367,18.3726304 41.7741616,18.3726304 C40.6290282,18.3342067 39.2004205,18.4075618 39.2004205,16.8137851 C39.2004205,16.0832654 39.6704159,15.3143215 40.9502074,15.3143215 L43.3794409,15.3143215 L43.3794409,14.31225 L41.1224159,14.31225 C40.4412762,14.31225 39.9465038,14.4732376 39.596085,14.7235271 L39.596085,14.31225 L36.2576393,14.31225 C35.7237773,14.31225 35.0971169,14.4428624 34.8007147,14.7235271 L34.8007147,14.31225 L28.8391284,14.31225 L28.8391284,14.7235271 C28.3646698,14.3857571 27.5641078,14.31225 27.1946062,14.31225 L23.2622796,14.31225 L23.2622796,14.7235271 C22.8869294,14.3647985 22.0522026,14.31225 21.5434258,14.31225 L17.1424886,14.31225 L16.1354,15.3878291 L15.1921768,14.31225 L8.6180877,14.31225 L8.6180877,21.3398146 L15.0684452,21.3398146 L16.1061593,20.2472249 L17.0837012,21.3398146 L21.0597338,21.3433057 L21.0597338,19.690145 L21.4506269,19.690145 C21.9781794,19.6981939 22.6003773,19.677236 23.1493201,19.4430445 L23.1493201,21.3396604 L26.4288245,21.3396604 L26.4288245,19.5080469 L26.5870281,19.5080469 C26.7889389,19.5080469 26.8087911,19.5162483 26.8087911,19.7153564 L26.8087911,21.3395085 L36.7713414,21.3395085 C37.4038497,21.3395085 38.0649827,21.1797361 38.4310988,20.8898066 L38.4310988,21.3395085 L41.5911798,21.3395085 C42.248774,21.3395085 42.890978,21.2485351 43.3795942,21.0155589 L43.3795942,19.7063954 L43.3795942,19.7063977 L43.3795942,19.7063977 Z M23.6260733,17.0032735 C23.6260733,18.402347 22.5683526,18.6912138 21.5023216,18.6912138 L19.9806072,18.6912138 L19.9806072,20.3805201 L17.6101622,20.3805201 L16.1084539,18.7132351 L14.5478043,20.3805201 L9.7170382,20.3805201 L9.7170382,15.3440381 L14.6221358,15.3440381 L16.1226121,16.9949201 L17.6738743,15.3440381 L21.5708052,15.3440381 C22.5386509,15.3440381 23.6260733,15.6084524 23.6260733,17.0032735 L23.6260733,17.0032735 L23.6260733,17.0032735 Z M13.9301593,19.3211398 L10.931668,19.3211398 L10.931668,18.3190678 L13.609134,18.3190678 L13.609134,17.291481 L10.931668,17.291481 L10.931668,16.3758256 L13.989255,16.3758256 L15.3232174,17.8435473 L13.9301593,19.3211398 L13.9301593,19.3211398 L13.9301593,19.3211398 Z M18.7615784,19.8978352 L16.889137,17.8463064 L18.7615784,15.8599318 L18.7615784,19.8978352 L18.7615784,19.8978352 L18.7615784,19.8978352 Z M21.5306703,17.658411 L19.9546311,17.658411 L19.9546311,16.3758256 L21.5448285,16.3758256 C21.9851229,16.3758256 22.2907579,16.5529124 22.2907579,16.9933506 C22.2907579,17.4289276 21.999281,17.658411 21.5306703,17.658411 L21.5306703,17.658411 L21.5306703,17.658411 Z M29.7873469,15.3440381 L33.8577177,15.3440381 L33.8577177,16.3855972 L31.001887,16.3855972 L31.001887,17.3012526 L33.7880032,17.3012526 L33.7880032,18.3288394 L31.001887,18.3288394 L31.001887,19.3309114 L33.8577177,19.335463 L33.8577177,20.3805161 L29.7873469,20.3805161 L29.7873469,15.3440341 L29.7873469,15.3440381 L29.7873469,15.3440381 Z M28.2225083,18.0399726 C28.4939791,18.1388436 28.7158954,18.3160817 28.8199292,18.4627932 C28.9921371,18.7086789 29.0170685,18.9381617 29.0219927,19.3820933 L29.0219927,20.3805201 L27.7976042,20.3805201 L27.7976042,19.7503899 C27.7976042,19.4473995 27.8271521,18.9987604 27.6004643,18.7645689 C27.4222541,18.5841413 27.1506294,18.5410089 26.7057187,18.5410089 L25.4023811,18.5410089 L25.4023811,20.3805201 L24.1769151,20.3805201 L24.1769151,15.3440381 L26.9925785,15.3440381 C27.6100061,15.3440381 28.0596877,15.37092 28.4599687,15.5817224 C28.84486,15.8112057 29.0869369,16.1255872 29.0869369,16.7001306 C29.0867633,17.5040054 28.5435331,17.9142203 28.2225083,18.0399726 L28.2225083,18.0399726 L28.2225083,18.0399726 Z M27.5331232,17.403261 C27.3699948,17.4987906 27.1682379,17.506992 26.930932,17.506992 L25.4493842,17.506992 L25.4493842,16.3758256 L26.9510919,16.3758256 C27.1682379,16.3758256 27.3855378,16.3803772 27.5331232,16.466799 C27.6911734,16.5483556 27.7856649,16.7043319 27.7856649,16.9198424 C27.7856649,17.1353534 27.6911734,17.3089468 27.5331232,17.403261 L27.5331232,17.403261 L27.5331232,17.403261 Z M38.542717,17.7240726 C38.7801779,17.9666175 38.9074483,18.2727975 38.9074483,18.791147 C38.9074483,19.8746243 38.2215384,20.3803682 36.9916092,20.3803682 L34.6162389,20.3803682 L34.6162389,19.3003848 L36.982068,19.3003848 C37.2133722,19.3003848 37.3774242,19.2701614 37.480226,19.1756946 C37.5640986,19.0977827 37.6242714,18.9846361 37.6242714,18.8471895 C37.6242714,18.7004775 37.5591739,18.5839899 37.4754557,18.514127 C37.3821945,18.4372779 37.2535388,18.402347 37.0411637,18.402347 C35.9006473,18.3639227 34.4723473,18.4372779 34.4723473,16.8435006 C34.4723473,16.1129815 34.9374181,15.3440381 36.215978,15.3440381 L38.6609089,15.3440381 L38.6609089,16.4159725 L36.4237361,16.4159725 C36.2019743,16.4159725 36.0577739,16.4241739 35.9351193,16.5069459 C35.8015389,16.5885025 35.7519843,16.7095468 35.7519843,16.8693191 C35.7519843,17.0593154 35.8654054,17.1885611 36.0188387,17.2444511 C36.147495,17.2886469 36.2856925,17.3015559 36.4934506,17.3015559 L37.1499678,17.3190216 C37.8120239,17.3349682 38.2664759,17.4479635 38.542717,17.7240726 L38.542717,17.7240726 L38.542717,17.7240726 Z M43.3821138,16.3758256 L41.1594081,16.3758256 C40.9374912,16.3758256 40.7900597,16.3840271 40.665866,16.466799 C40.5372102,16.5483556 40.4876563,16.6694004 40.4876563,16.8291734 C40.4876563,17.0191685 40.5963059,17.1484143 40.7543556,17.2043043 C40.883012,17.2485 41.02121,17.2614096 41.2243511,17.2614096 L41.8853308,17.2788753 C42.5523117,17.2951263 42.9975302,17.4082729 43.269001,17.6842301 C43.3184011,17.7226544 43.3481034,17.7657868 43.3821138,17.8089191 L43.3821138,16.3758256 L43.3821138,16.3758256 L43.3821138,16.3758256 Z" id="path13" fill="#FFFFFF"></path>
            </g>
        </g>
    </g>
</svg>