<?xml version="1.0" encoding="UTF-8"?>
<svg width="728px" height="450px" viewBox="0 0 728 450" version="1.1" xmlns="http://www.w3.org/2000/svg" xmlns:xlink="http://www.w3.org/1999/xlink">
    <title>POS Logo</title>
    <g id="Page-1" stroke="none" stroke-width="1" fill="none" fill-rule="evenodd">
        <g id="POS-Logo">
            <rect id="BG" fill="#FFFFFF" x="0" y="0" width="728" height="450"></rect>
            <path d="M349.061207,124.509687 L313.193701,294.233939 L269.832789,294.233939 L305.708988,124.509687 L349.061207,124.509687 Z M531.432609,234.099237 L554.251854,170.372302 L567.387046,234.099237 L531.432609,234.099237 Z M579.800715,294.233939 L619.901734,294.233939 L584.912226,124.509687 L547.888545,124.509687 C539.5693,124.509687 532.554012,129.422596 529.433209,136.950439 L464.426614,294.233939 L509.926015,294.233939 L518.958089,268.885797 L574.576195,268.885797 L579.800715,294.233939 Z M466.652034,238.792033 C466.860667,194.02998 405.487765,191.591135 405.931111,171.560909 C406.052813,165.441785 411.772837,158.979286 424.299516,157.34165 C430.523737,156.505223 447.649036,155.888908 467.051914,164.913515 L474.658329,128.938348 C464.217981,125.099589 450.795919,121.41931 434.113964,121.41931 C391.265943,121.41931 361.109768,144.504696 360.848976,177.530357 C360.570799,201.954026 382.372957,215.583384 398.820199,223.718738 C415.702094,232.038986 421.34388,237.348096 421.291722,244.814308 C421.178713,256.207325 407.817501,261.181864 395.351674,261.410781 C373.549516,261.754156 360.909828,255.441333 350.808509,250.678102 L342.958689,287.894702 C353.077394,292.596303 371.802214,296.681588 391.187705,296.91931 C436.721878,296.91931 466.512945,274.08045 466.652034,238.792033 L466.652034,238.792033 Z M287.114564,124.509687 L216.883449,294.233939 L171.045019,294.233939 L136.507549,158.803196 C134.386446,150.44773 132.5696,147.410179 126.188904,143.861968 C115.748557,138.139046 98.5710986,132.777108 83.4017341,129.440205 L84.4709787,124.509687 L158.214084,124.509687 C167.61996,124.509687 176.078293,130.866533 178.199396,141.819325 L196.463485,240.051076 L241.563005,124.509687 L287.114564,124.509687 Z" id="Fill-1" fill="#1A1F71"></path>
            <rect id="Bottom-band" fill="#F7B600" x="0" y="382" width="728" height="68"></rect>
            <rect id="Top-band" fill="#1A1F71" x="0" y="0" width="728" height="67"></rect>
        </g>
    </g>
</svg>