<?xml version="1.0" encoding="UTF-8"?>
<svg width="44px" height="27px" viewBox="0 0 44 27" version="1.1" xmlns="http://www.w3.org/2000/svg" xmlns:xlink="http://www.w3.org/1999/xlink">
    <!-- Generator: Sketch 53.2 (72643) - https://sketchapp.com -->
    <title>Group 6</title>
    <desc>Created with Sketch.</desc>
    <g id="Page-1" stroke="none" stroke-width="1" fill="none" fill-rule="evenodd">
        <g id="Group-6" fill-rule="nonzero">
            <g id="mastercard" fill="#FFFFFF">
                <rect id="Rectangle-1" x="0" y="0" width="43.3821138" height="27" rx="2.3226831"></rect>
            </g>
            <g id="Group-2" transform="translate(7.000000, 2.000000)">
                <g id="Mastercard-logo">
                    <g id="Group" transform="translate(15.285965, 21.173526) scale(-1, 1) rotate(-180.000000) translate(-15.285965, -21.173526) translate(1.732574, 19.200159)" fill="#231F20">
                        <path d="M26.5535825,0.563819142 L26.5535825,0.50574577 L26.6061365,0.50574577 C26.6177537,0.50574577 26.6277113,0.508564866 26.6349029,0.513075419 C26.6415413,0.517585972 26.6454137,0.52547944 26.6454137,0.535064366 C26.6454137,0.544649291 26.6415413,0.55197894 26.6349029,0.556489493 C26.6277113,0.561563866 26.6177537,0.563819142 26.6061365,0.563819142 L26.5535825,0.563819142 Z M26.6066897,0.60441412 C26.6337965,0.60441412 26.6548181,0.59821211 26.6697544,0.585808089 C26.6846908,0.573404068 26.6918824,0.556489493 26.6918824,0.535064366 C26.6918824,0.517022153 26.6863504,0.502362856 26.67418,0.490522654 C26.6625629,0.479246271 26.6459669,0.471916622 26.6238389,0.469097526 L26.693542,0.387343751 L26.6393285,0.387343751 L26.5746041,0.468533707 L26.5535825,0.468533707 L26.5535825,0.387343751 L26.5082202,0.387343751 L26.5082202,0.60441412 L26.6066897,0.60441412 Z M26.5928597,0.312355805 C26.6177537,0.312355805 26.6409881,0.317430177 26.6620097,0.327015102 C26.6835844,0.336600028 26.7023932,0.349567868 26.718436,0.365918623 C26.7344788,0.382269378 26.7472024,0.401439229 26.7566068,0.423991995 C26.765458,0.445980941 26.7704368,0.469661345 26.7704368,0.495033207 C26.7704368,0.520405068 26.765458,0.544085472 26.7566068,0.566074419 C26.7472024,0.588063365 26.7344788,0.607797035 26.718436,0.62414779 C26.7023932,0.640498545 26.6835844,0.653466386 26.6620097,0.663051311 C26.6409881,0.672072417 26.6177537,0.676582971 26.5928597,0.676582971 C26.5679657,0.676582971 26.5441781,0.672072417 26.5226033,0.663051311 C26.5004754,0.653466386 26.4811134,0.640498545 26.4650706,0.62414779 C26.4490278,0.607797035 26.4363042,0.588063365 26.427453,0.566074419 C26.4180486,0.544085472 26.413623,0.520405068 26.413623,0.495033207 C26.413623,0.469661345 26.4180486,0.445980941 26.427453,0.423991995 C26.4363042,0.401439229 26.4490278,0.382269378 26.4650706,0.365918623 C26.4811134,0.349567868 26.5004754,0.336600028 26.5226033,0.327015102 C26.5441781,0.317430177 26.5679657,0.312355805 26.5928597,0.312355805 L26.5928597,0.312355805 Z M26.5928597,0.729018151 C26.6254985,0.729018151 26.6553713,0.72281614 26.6841376,0.710412119 C26.7123508,0.698571917 26.7366916,0.681657343 26.7582664,0.660232215 C26.779288,0.639370907 26.795884,0.614562865 26.8080544,0.585808089 C26.8202247,0.557617132 26.8263099,0.527170898 26.8263099,0.495033207 C26.8263099,0.462895516 26.8202247,0.432449282 26.8080544,0.404258325 C26.795884,0.376067368 26.779288,0.351259326 26.7582664,0.329834198 C26.7366916,0.30897289 26.7123508,0.292058316 26.6841376,0.279654294 C26.6553713,0.267250273 26.6254985,0.261048263 26.5928597,0.261048263 C26.5596677,0.261048263 26.5292417,0.267250273 26.5004754,0.279654294 C26.471709,0.292058316 26.446815,0.30897289 26.4257934,0.329834198 C26.4047718,0.351259326 26.3881758,0.376067368 26.3760054,0.404258325 C26.363835,0.432449282 26.3577499,0.462895516 26.3577499,0.495033207 C26.3577499,0.527170898 26.363835,0.557617132 26.3760054,0.585808089 C26.3881758,0.614562865 26.4047718,0.639370907 26.4257934,0.660232215 C26.446815,0.681657343 26.471709,0.698571917 26.5004754,0.710412119 C26.5292417,0.72281614 26.5596677,0.729018151 26.5928597,0.729018151 L26.5928597,0.729018151 Z M5.03964868,1.56516194 C5.03964868,1.97900519 5.30573771,2.31898813 5.74055262,2.31898813 C6.15600555,2.31898813 6.43647776,1.99366449 6.43647776,1.56516194 C6.43647776,1.13665939 6.15600555,0.811335745 5.74055262,0.811335745 C5.30573771,0.811335745 5.03964868,1.15131869 5.03964868,1.56516194 L5.03964868,1.56516194 Z M6.91001665,1.56516194 L6.91001665,2.74241631 L6.40771138,2.74241631 L6.40771138,2.45656 C6.24838989,2.668556 6.00664165,2.80161732 5.67804106,2.80161732 C5.03024429,2.80161732 4.52240702,2.28403134 4.52240702,1.56516194 C4.52240702,0.845728713 5.03024429,0.32870656 5.67804106,0.32870656 C6.00664165,0.32870656 6.24838989,0.461767877 6.40771138,0.673763875 L6.40771138,0.38790757 L6.91001665,0.38790757 L6.91001665,1.56516194 Z M23.8843943,1.56516194 C23.8843943,1.97900519 24.1504833,2.31898813 24.5852982,2.31898813 C25.0013043,2.31898813 25.2812234,1.99366449 25.2812234,1.56516194 C25.2812234,1.13665939 25.0013043,0.811335745 24.5852982,0.811335745 C24.1504833,0.811335745 23.8843943,1.15131869 23.8843943,1.56516194 L23.8843943,1.56516194 Z M25.7553154,1.56516194 L25.7553154,3.68794101 L25.252457,3.68794101 L25.252457,2.45656 C25.0931355,2.668556 24.8513872,2.80161732 24.5227867,2.80161732 C23.8749899,2.80161732 23.3671526,2.28403134 23.3671526,1.56516194 C23.3671526,0.845728713 23.8749899,0.32870656 24.5227867,0.32870656 C24.8513872,0.32870656 25.0931355,0.461767877 25.252457,0.673763875 L25.252457,0.38790757 L25.7553154,0.38790757 L25.7553154,1.56516194 Z M13.1451297,2.34323235 C13.4687515,2.34323235 13.6767546,2.13631073 13.7298618,1.77208356 L12.5310782,1.77208356 C12.5847385,2.11206651 12.7872096,2.34323235 13.1451297,2.34323235 L13.1451297,2.34323235 Z M13.1550873,2.80161732 C12.477971,2.80161732 12.0044321,2.29925446 12.0044321,1.56516194 C12.0044321,0.816410118 12.497333,0.32870656 13.1888325,0.32870656 C13.5367951,0.32870656 13.8554381,0.417226165 14.1359103,0.658540758 L13.8897365,1.03799104 C13.6961166,0.8806855 13.4493895,0.791602075 13.2175989,0.791602075 C12.8939771,0.791602075 12.5991217,0.944397063 12.5266526,1.36838906 L14.2421246,1.36838906 C14.2471034,1.43210062 14.2520822,1.496376 14.2520822,1.56516194 C14.2471034,2.29925446 13.8023309,2.80161732 13.1550873,2.80161732 L13.1550873,2.80161732 Z M19.2203682,1.56516194 C19.2203682,1.97900519 19.4864572,2.31898813 19.9212721,2.31898813 C20.336725,2.31898813 20.6171972,1.99366449 20.6171972,1.56516194 C20.6171972,1.13665939 20.336725,0.811335745 19.9212721,0.811335745 C19.4864572,0.811335745 19.2203682,1.15131869 19.2203682,1.56516194 L19.2203682,1.56516194 Z M21.0907361,1.56516194 L21.0907361,2.74241631 L20.5884309,2.74241631 L20.5884309,2.45656 C20.4285562,2.668556 20.1873611,2.80161732 19.8587605,2.80161732 C19.2109638,2.80161732 18.7031265,2.28403134 18.7031265,1.56516194 C18.7031265,0.845728713 19.2109638,0.32870656 19.8587605,0.32870656 C20.1873611,0.32870656 20.4285562,0.461767877 20.5884309,0.673763875 L20.5884309,0.38790757 L21.0907361,0.38790757 L21.0907361,1.56516194 Z M16.3835604,1.56516194 C16.3835604,0.850803085 16.8714825,0.32870656 17.6160892,0.32870656 C17.9640518,0.32870656 18.1958424,0.40764124 18.4469951,0.609488493 L18.2058,1.02333174 C18.0171589,0.885196053 17.8191135,0.811335745 17.6011528,0.811335745 C17.2000831,0.816410118 16.9052277,1.11185135 16.9052277,1.56516194 C16.9052277,2.01847253 17.2000831,2.31391376 17.6011528,2.31898813 C17.8191135,2.31898813 18.0171589,2.24512782 18.2058,2.10699213 L18.4469951,2.52083538 C18.1958424,2.72268264 17.9640518,2.80161732 17.6160892,2.80161732 C16.8714825,2.80161732 16.3835604,2.27952079 16.3835604,1.56516194 L16.3835604,1.56516194 Z M22.8598686,2.80161732 C22.5699919,2.80161732 22.3813509,2.66348163 22.2507958,2.45656 L22.2507958,2.74241631 L21.7529161,2.74241631 L21.7529161,0.38790757 L22.2557746,0.38790757 L22.2557746,1.70780818 C22.2557746,2.09740721 22.4200748,2.31391376 22.7486754,2.31391376 C22.8504642,2.31391376 22.9566785,2.29925446 23.0628928,2.25471275 L23.2177887,2.73734193 C23.1065956,2.78188365 22.9616573,2.80161732 22.8598686,2.80161732 L22.8598686,2.80161732 Z M9.39443622,2.55522835 C9.15268798,2.71760826 8.8196618,2.80161732 8.45233724,2.80161732 C7.86705202,2.80161732 7.49032307,2.51576101 7.49032307,2.04779112 C7.49032307,1.66383029 7.77079529,1.42702625 8.28748375,1.35316594 L8.52480639,1.31877297 C8.80029981,1.27930563 8.93030172,1.20544533 8.93030172,1.07238401 C8.93030172,0.890270425 8.74663944,0.786527703 8.40365567,0.786527703 C8.0556931,0.786527703 7.80454046,0.899855351 7.63526138,1.03291667 L7.39849193,0.634296535 C7.67398535,0.42737491 8.02194792,0.32870656 8.39867687,0.32870656 C9.06583563,0.32870656 9.45252218,0.648955833 9.45252218,1.09719205 C9.45252218,1.5110353 9.14826238,1.72754185 8.64540391,1.80140216 L8.40863447,1.83635895 C8.19122701,1.86567754 8.01696912,1.90965543 8.01696912,2.06752479 C8.01696912,2.24005345 8.18126942,2.34323235 8.45676283,2.34323235 C8.75161824,2.34323235 9.03706925,2.22990471 9.17702876,2.1413851 L9.39443622,2.55522835 Z M15.8757232,2.80161732 C15.5858465,2.80161732 15.3972055,2.66348163 15.2672036,2.45656 L15.2672036,2.74241631 L14.7693239,2.74241631 L14.7693239,0.38790757 L15.2716291,0.38790757 L15.2716291,1.70780818 C15.2716291,2.09740721 15.4359294,2.31391376 15.76453,2.31391376 C15.8663188,2.31391376 15.9725331,2.29925446 16.0787474,2.25471275 L16.2336433,2.73734193 C16.1224502,2.78188365 15.9775119,2.80161732 15.8757232,2.80161732 L15.8757232,2.80161732 Z M11.5889792,2.74241631 L10.7674777,2.74241631 L10.7674777,3.45677516 L10.2596404,3.45677516 L10.2596404,2.74241631 L9.79108036,2.74241631 L9.79108036,2.27444642 L10.2596404,2.27444642 L10.2596404,1.20037095 C10.2596404,0.654030205 10.4676435,0.32870656 11.0617799,0.32870656 C11.2797406,0.32870656 11.5308932,0.397492495 11.6902147,0.510820143 L11.5452764,0.949471435 C11.3953593,0.86095183 11.231059,0.816410118 11.1005039,0.816410118 C10.8493513,0.816410118 10.7674777,0.974279478 10.7674777,1.2105197 L10.7674777,2.27444642 L11.5889792,2.27444642 L11.5889792,2.74241631 Z M4.07818772,0.38790757 L4.07818772,1.86567754 C4.07818772,2.42216703 3.73022515,2.79654294 3.16928071,2.80161732 C2.87442531,2.80669169 2.57016551,2.71309771 2.35718365,2.38269969 C2.19786215,2.64374796 1.94670952,2.80161732 1.59376815,2.80161732 C1.34704111,2.80161732 1.10584607,2.72775701 0.917204996,2.45204945 L0.917204996,2.74241631 L0.414346527,2.74241631 L0.414346527,0.38790757 L0.921630593,0.38790757 L0.921630593,1.69314888 C0.921630593,2.10191776 1.14401685,2.31898813 1.48755382,2.31898813 C1.8211332,2.31898813 1.98985909,2.09740721 1.98985909,1.69822326 L1.98985909,0.38790757 L2.49769636,0.38790757 L2.49769636,1.69314888 C2.49769636,2.10191776 2.729487,2.31898813 3.06306638,2.31898813 C3.40605016,2.31898813 3.57035045,2.09740721 3.57035045,1.69822326 L3.57035045,0.38790757 L4.07818772,0.38790757 Z" id="Shape"></path>
                    </g>
                    <g id="Group" transform="translate(28.180025, 15.055322) scale(-1, 1) rotate(-180.000000) translate(-28.180025, -15.055322) translate(27.489549, 14.364846)" fill="#F79410">
                        <path d="M1.84702381,-2.77555756e-16 L1.84702381,0.842380952 L1.68130952,0.842380952 L1.48953953,0.263761905 L1.29881177,0.842380952 L1.13205526,0.842380952 L1.13205526,-2.77555756e-16 L1.24982704,-2.77555756e-16 L1.24982704,0.635238095 L1.4290903,0.087 L1.551031,0.087 L1.73029425,0.636619048 L1.73029425,-2.77555756e-16 L1.84702381,-2.77555756e-16 Z M0.795415544,1.66533454e-16 L0.795415544,0.698761905 L1.0080301,0.698761905 L1.0080301,0.841 L0.466071429,0.841 L0.466071429,0.698761905 L0.678685984,0.698761905 L0.678685984,1.66533454e-16 L0.795415544,1.66533454e-16 Z" id="Shape"></path>
                    </g>
                    <polygon id="Path" fill="#FF5F00" points="18.5940989 16.4081267 10.9811868 16.4081267 10.9811868 2.46375166 18.5940989 2.46375166"></polygon>
                    <g id="Group" transform="translate(7.873090, 9.434812) scale(-1, 1) rotate(-180.000000) translate(-7.873090, -9.434812) translate(0.404895, 0.413705)" fill="#EB001B">
                        <path d="M11.0639927,9.02110627 C11.0639927,11.8497869 12.3634587,14.3694947 14.3870629,15.9932938 C12.9072539,17.1806969 11.0396519,17.8894176 9.00996247,17.8894176 C4.20487043,17.8894176 0.309791796,13.9190032 0.309791796,9.02110627 C0.309791796,4.12320939 4.20487043,0.152794988 9.00996247,0.152794988 C11.0396519,0.152794988 12.9072539,0.861515649 14.3870629,2.04891876 C12.3634587,3.67271789 11.0639927,6.19242564 11.0639927,9.02110627" id="Path"></path>
                    </g>
                    <g id="Group" transform="translate(21.669889, 9.434812) scale(-1, 1) rotate(-180.000000) translate(-21.669889, -9.434812) translate(14.478294, 0.413705)" fill="#F79E1B">
                        <path d="M14.3831905,9.02110627 C14.3831905,4.12320939 10.4881119,0.152794988 5.68301986,0.152794988 C3.6533304,0.152794988 1.78572842,0.861515649 0.305366199,2.04891876 C2.32952367,3.67271789 3.62898961,6.19242564 3.62898961,9.02110627 C3.62898961,11.8497869 2.32952367,14.3694947 0.305366199,15.9932938 C1.78572842,17.1806969 3.6533304,17.8894176 5.68301986,17.8894176 C10.4881119,17.8894176 14.3831905,13.9190032 14.3831905,9.02110627" id="Path"></path>
                    </g>
                </g>
            </g>
        </g>
    </g>
</svg>