<?xml version="1.0" encoding="UTF-8"?>
<svg width="45px" height="29px" viewBox="0 0 45 29" version="1.1" xmlns="http://www.w3.org/2000/svg" xmlns:xlink="http://www.w3.org/1999/xlink">
    <!-- Generator: Sketch 43.2 (39069) - http://www.bohemiancoding.com/sketch -->
    <title>discover</title>
    <desc>Created with Sketch.</desc>
    <defs>
        <rect id="path-1" x="0" y="0" width="43.3821138" height="27" rx="2.3226831"></rect>
    </defs>
    <g id="Page-1" stroke="none" stroke-width="1" fill="none" fill-rule="evenodd">
        <g id="discover" transform="translate(1.000000, 1.000000)">
            <rect id="Rectangle-1-Copy-2" stroke="#C5C5C5" fill-rule="nonzero" x="0" y="0" width="43.3821138" height="27" rx="2.3226831"></rect>
            <g fill-rule="evenodd" transform="translate(4.000000, 10.000000)">
                <ellipse id="Oval" fill="#EF9122" fill-rule="nonzero" cx="19.1032258" cy="3.12915795" rx="3.01935484" ry="3.05570354"></ellipse>
                <path d="M16.083871,3.12915795 C16.083871,1.42501559 17.4193548,0.073454412 19.1032258,0.073454412 C20.7870968,0.073454412 22.1225806,1.42501559 22.1225806,3.12915795 C22.1225806,4.83330031 20.7870968,6.18486149 19.1032258,6.18486149" id="Shape" fill="#F26E21" fill-rule="nonzero"></path>
                <path d="M17.0129032,0.954907356 C18.1741935,-0.220363236 20.0903226,-0.220363236 21.2516129,0.954907356 C22.4129032,2.13017795 22.4129032,4.06937443 21.2516129,5.24464502" id="Shape" fill="#F44500" fill-rule="nonzero"></path>
                <path d="M1.62580645,0.249745001 L0,0.249745001 L0,6.0085709 L1.62580645,6.0085709 C2.49677419,6.0085709 3.13548387,5.77351679 3.65806452,5.36217208 C4.29677419,4.83330031 4.70322581,4.0106109 4.70322581,3.12915795 C4.70322581,1.42501559 3.48387097,0.249745001 1.62580645,0.249745001 Z M2.96129032,4.59824619 C2.61290323,4.89206384 2.1483871,5.06835443 1.4516129,5.06835443 L1.10322581,5.06835443 L1.10322581,1.248725 L1.39354839,1.248725 C2.09032258,1.248725 2.55483871,1.36625206 2.90322581,1.71883324 C3.30967742,2.07141442 3.54193548,2.60028619 3.54193548,3.12915795 C3.6,3.65802972 3.36774194,4.24566502 2.96129032,4.59824619 Z" id="SVGCleanerId_0" fill="#595A5B" fill-rule="nonzero"></path>
                <rect id="SVGCleanerId_1" fill="#595A5B" fill-rule="nonzero" x="5.22580645" y="0.249745001" width="1.10322581" height="5.7588259"></rect>
                <path d="M9.11612903,2.48275913 C8.41935484,2.24770501 8.24516129,2.07141442 8.24516129,1.77759677 C8.24516129,1.42501559 8.59354839,1.13119795 9.05806452,1.13119795 C9.40645161,1.13119795 9.69677419,1.248725 9.98709677,1.60130618 L10.5677419,0.837380297 C10.1032258,0.42603559 9.52258065,0.190981471 8.88387097,0.190981471 C7.89677419,0.190981471 7.08387097,0.896143827 7.08387097,1.8363603 C7.08387097,2.65904972 7.43225806,3.01163089 8.47741935,3.4229756 C8.94193548,3.59926619 9.11612903,3.65802972 9.23225806,3.77555678 C9.46451613,3.89308384 9.58064516,4.12813796 9.58064516,4.36319207 C9.58064516,4.83330031 9.23225806,5.18588149 8.70967742,5.18588149 C8.18709677,5.18588149 7.72258065,4.89206384 7.49032258,4.4219556 L6.79354839,5.12711796 C7.31612903,5.89104385 7.95483871,6.24362502 8.76774194,6.24362502 C9.92903226,6.24362502 10.7419355,5.47969914 10.7419355,4.36319207 C10.7419355,3.36421207 10.3935484,2.95286736 9.11612903,2.48275913 Z" id="SVGCleanerId_2" fill="#595A5B" fill-rule="nonzero"></path>
                <path d="M11.0903226,3.12915795 C11.0903226,4.83330031 12.4258065,6.12609796 14.1096774,6.12609796 C14.5741935,6.12609796 14.9806452,6.0085709 15.5032258,5.77351679 L15.5032258,4.4219556 C15.0387097,4.89206384 14.6322581,5.06835443 14.1677419,5.06835443 C13.0645161,5.06835443 12.2516129,4.24566502 12.2516129,3.07039442 C12.2516129,1.95388736 13.0645161,1.07243442 14.1096774,1.07243442 C14.6322581,1.07243442 15.0387097,1.248725 15.5032258,1.71883324 L15.5032258,0.36727206 C15.0387097,0.132217942 14.6322581,0.0146908824 14.1096774,0.0146908824 C12.483871,0.132217942 11.0903226,1.48377912 11.0903226,3.12915795 Z" id="Shape" fill="#3B3D3F" fill-rule="nonzero"></path>
                <polygon id="Shape" fill="#000000" fill-rule="nonzero" points="24.6193548 4.12813796 23.1096774 0.249745001 21.8903226 0.249745001 24.2709677 6.18486149 24.9096774 6.18486149 27.4064516 0.249745001 26.1870968 0.249745001"></polygon>
                <polygon id="Shape" fill="#000000" fill-rule="nonzero" points="27.8709677 6.0085709 31.0645161 6.0085709 31.0645161 5.06835443 29.0322581 5.06835443 29.0322581 3.48173913 31.0064516 3.48173913 31.0064516 2.48275913 29.0322581 2.48275913 29.0322581 1.248725 31.0645161 1.248725 31.0645161 0.249745001 27.8709677 0.249745001"></polygon>
                <path d="M34.2,3.59926619 C35.0709677,3.4229756 35.5354839,2.8353403 35.5354839,1.95388736 C35.5354839,0.896143827 34.7806452,0.249745001 33.5032258,0.249745001 L31.8193548,0.249745001 L31.8193548,6.0085709 L32.9225806,6.0085709 L32.9225806,3.71679325 L33.0967742,3.71679325 L34.6645161,6.0085709 L36,6.0085709 L34.2,3.59926619 Z M33.2709677,2.89410383 L32.9225806,2.89410383 L32.9225806,1.13119795 L33.2709677,1.13119795 C33.9677419,1.13119795 34.3741935,1.42501559 34.3741935,2.01265089 C34.3741935,2.60028619 33.9677419,2.89410383 33.2709677,2.89410383 Z" id="Shape" fill="#595A5B" fill-rule="nonzero"></path>
                <path d="M1.62580645,0.249745001 L0,0.249745001 L0,6.0085709 L1.62580645,6.0085709 C2.49677419,6.0085709 3.13548387,5.77351679 3.65806452,5.36217208 C4.29677419,4.83330031 4.70322581,4.0106109 4.70322581,3.12915795 C4.70322581,1.42501559 3.48387097,0.249745001 1.62580645,0.249745001 Z M2.96129032,4.59824619 C2.61290323,4.89206384 2.1483871,5.06835443 1.4516129,5.06835443 L1.10322581,5.06835443 L1.10322581,1.248725 L1.39354839,1.248725 C2.09032258,1.248725 2.55483871,1.36625206 2.90322581,1.71883324 C3.30967742,2.07141442 3.54193548,2.60028619 3.54193548,3.12915795 C3.6,3.65802972 3.36774194,4.24566502 2.96129032,4.59824619 Z" id="SVGCleanerId_0_1_" fill="#595A5B" fill-rule="nonzero"></path>
                <rect id="SVGCleanerId_1_1_" fill="#595A5B" fill-rule="nonzero" x="5.22580645" y="0.249745001" width="1.10322581" height="5.7588259"></rect>
                <path d="M9.11612903,2.48275913 C8.41935484,2.24770501 8.24516129,2.07141442 8.24516129,1.77759677 C8.24516129,1.42501559 8.59354839,1.13119795 9.05806452,1.13119795 C9.40645161,1.13119795 9.69677419,1.248725 9.98709677,1.60130618 L10.5677419,0.837380297 C10.1032258,0.42603559 9.52258065,0.190981471 8.88387097,0.190981471 C7.89677419,0.190981471 7.08387097,0.896143827 7.08387097,1.8363603 C7.08387097,2.65904972 7.43225806,3.01163089 8.47741935,3.4229756 C8.94193548,3.59926619 9.11612903,3.65802972 9.23225806,3.77555678 C9.46451613,3.89308384 9.58064516,4.12813796 9.58064516,4.36319207 C9.58064516,4.83330031 9.23225806,5.18588149 8.70967742,5.18588149 C8.18709677,5.18588149 7.72258065,4.89206384 7.49032258,4.4219556 L6.79354839,5.12711796 C7.31612903,5.89104385 7.95483871,6.24362502 8.76774194,6.24362502 C9.92903226,6.24362502 10.7419355,5.47969914 10.7419355,4.36319207 C10.7419355,3.36421207 10.3935484,2.95286736 9.11612903,2.48275913 Z" id="SVGCleanerId_2_1_" fill="#595A5B" fill-rule="nonzero"></path>
                <path d="M14.1677419,6.12609796 C14.6322581,6.12609796 15.0387097,6.0085709 15.5612903,5.77351679 L15.5612903,4.4219556 C15.0967742,4.89206384 14.6903226,5.06835443 14.2258065,5.06835443 C13.1225806,5.06835443 12.3096774,4.24566502 12.3096774,3.07039442 C12.3096774,2.48275913 12.5419355,2.01265089 12.8903226,1.60130618 L12.1354839,0.837380297 C11.5548387,1.36625206 11.1483871,2.18894148 11.1483871,3.07039442 C11.0903226,4.83330031 12.4258065,6.12609796 14.1677419,6.12609796 Z" id="Shape" fill="#595A5B" fill-rule="nonzero"></path>
                <path d="M34.2,3.59926619 C35.0709677,3.4229756 35.5354839,2.8353403 35.5354839,1.95388736 C35.5354839,0.896143827 34.7806452,0.249745001 33.5032258,0.249745001 L31.8193548,0.249745001 L31.8193548,6.0085709 L32.9225806,6.0085709 L32.9225806,3.71679325 L33.0967742,3.71679325 L34.6645161,6.0085709 L36,6.0085709 L34.2,3.59926619 Z M33.2709677,2.89410383 L32.9225806,2.89410383 L32.9225806,1.13119795 L33.2709677,1.13119795 C33.9677419,1.13119795 34.3741935,1.42501559 34.3741935,2.01265089 C34.3741935,2.60028619 33.9677419,2.89410383 33.2709677,2.89410383 Z" id="Shape" fill="#000000" fill-rule="nonzero"></path>
                <g id="Group" transform="translate(21.846774, 0.220363)" fill-rule="nonzero" fill="#3B3D3F">
                    <polygon id="Shape" points="8.23064516 4.84799119 7.18548387 4.84799119 7.18548387 3.79024766 6.02419355 2.61497707 6.02419355 5.78820767 9.15967742 5.78820767"></polygon>
                    <polygon id="Shape" points="4.05 0.617017061 2.77258065 3.90777472 1.26290323 0.0293817648 0.0435483871 0.0293817648 2.42419355 5.96449826 3.06290323 5.96449826 4.92096774 1.49847001"></polygon>
                </g>
            </g>
            <g id="Path-2" fill-rule="evenodd">
                <mask id="mask-2" fill="white">
                    <use xlink:href="#path-1"></use>
                </mask>
                <g id="Mask" fill-rule="nonzero"></g>
                <path d="M43.8523332,9.86073585 C43.8523332,9.86073585 41.5402999,18.0327867 33.1181521,21.2458954 C24.6960044,24.4590041 15.0996731,26.6347862 15.0996731,26.6347862 C15.0996731,26.6347862 10.4120224,32.9338357 11.6631123,32.9338357 C12.9142021,32.9338357 56.3384034,33.227533 56.3384034,33.227533 L43.8523332,9.86073585 Z" fill="#F07D21" mask="url(#mask-2)"></path>
            </g>
        </g>
    </g>
</svg>