<?xml version="1.0" encoding="UTF-8"?>
<svg width="44px" height="27px" viewBox="0 0 44 27" version="1.1" xmlns="http://www.w3.org/2000/svg" xmlns:xlink="http://www.w3.org/1999/xlink">
    <!-- Generator: Sketch 43.2 (39069) - http://www.bohemiancoding.com/sketch -->
    <title>discover</title>
    <desc>Created with Sketch.</desc>
    <defs></defs>
    <g id="Page-1" stroke="none" stroke-width="1" fill="none" fill-rule="evenodd">
        <g id="discover">
            <rect id="Rectangle-1" fill="#F2F2F2" fill-rule="nonzero" x="0" y="0" width="43.3821138" height="27" rx="2.3226831"></rect>
            <g id="Group-Copy" stroke-width="1" fill-rule="evenodd" transform="translate(10.000000, 3.000000)" fill="#3D6DEB">
                <path d="M4.43281747,9.71471345 C4.43666548,11.9563041 5.80399219,13.8670409 7.73972514,14.6264327 L7.73972514,4.79897076 C5.80399219,5.56332164 4.43666548,7.47405848 4.43281747,9.71471345 Z" id="Shape" fill-rule="nonzero"></path>
                <path d="M20.595473,2.77745029 C18.7709659,1.0619883 16.2767216,0.0780350877 13.7441804,0.0780350877 L11.818892,0.0780350877 L9.55818537,0.0780350877 C4.1308402,0.0780350877 0.0382052557,4.26123977 0.0382052557,9.8085614 C0.0382052557,15.0884678 4.2925483,19.3840468 9.5218125,19.3840468 L11.818892,19.3840468 L13.7413402,19.3840468 L13.7879744,19.3842339 L13.7884325,19.3842339 C16.2632536,19.3842339 18.7509929,18.3621053 20.6134304,16.580117 C22.5390852,14.7375906 23.5996705,12.3328187 23.5996705,9.80874854 C23.5995788,7.09595322 22.5326719,4.59892398 20.595473,2.77745029 Z M11.818892,17.0945497 C11.1126903,17.3180819 10.3628778,17.4388772 9.58576278,17.4388772 C5.41570952,17.4388772 2.02304616,13.9738947 2.02304616,9.71480702 C2.02304616,5.4557193 5.41570952,1.99073684 9.58576278,1.99073684 C10.3628778,1.99073684 11.1126903,2.11153216 11.818892,2.33506433 C14.9004162,3.31059649 17.1451811,6.24991813 17.1451811,9.71480702 C17.1451811,13.1796959 14.9004162,16.118924 11.818892,17.0945497 Z" id="Shape" fill-rule="nonzero"></path>
                <path d="M11.818892,4.97253801 C11.6915412,4.90966082 11.5619915,4.85090058 11.4292351,4.79878363 L11.4292351,14.6262456 C11.5621747,14.5741287 11.6916328,14.515462 11.818892,14.4527719 C13.5454581,13.6019649 14.7356847,11.802386 14.7394411,9.71471345 C14.7356847,7.62788304 13.5454581,5.82474854 11.818892,4.97253801 Z" id="Shape" fill-rule="nonzero"></path>
            </g>
        </g>
    </g>
</svg>